<?xml version="1.0" encoding="utf-8"?>
<!-- Generator: Adobe Illustrator 17.0.0, SVG Export Plug-In . SVG Version: 6.00 Build 0)  -->
<!DOCTYPE svg PUBLIC "-//W3C//DTD SVG 1.1//EN" "http://www.w3.org/Graphics/SVG/1.1/DTD/svg11.dtd">
<svg version="1.1" xmlns="http://www.w3.org/2000/svg" xmlns:xlink="http://www.w3.org/1999/xlink" x="0px" y="0px" width="329px"
	 height="329px" viewBox="0 0 329 329" enable-background="new 0 0 329 329" xml:space="preserve">
<g id="Lead" display="none">
	<g>
		<g display="inline">
			<g>
				<path fill="#A4CE3B" d="M-60.245,161.638l-11.274,25.893h-4.389l-11.317-25.893h5.766l7.789,17.731l7.66-17.731H-60.245z"/>
				<path fill="#73AA42" d="M-71.192,188.031h-5.044l-11.754-26.893h6.857l7.458,16.979l7.335-16.979h6.858L-71.192,188.031z
					 M-75.581,187.031h3.734l10.838-24.893h-4.674l-7.984,18.483l-8.119-18.483h-4.675L-75.581,187.031z"/>
			</g>
			<g>
				<path fill="#A4CE3B" d="M-53.619,187.531h-5.164v-25.893h5.164V187.531z"/>
				<path fill="#73AA42" d="M-53.119,188.031h-6.164v-26.893h6.164V188.031z M-58.282,187.031h4.164v-24.893h-4.164V187.031z"/>
			</g>
			<g>
				<path fill="#A4CE3B" d="M-7.79,187.531h-22.161v-25.893h5.164v19.848H-7.79V187.531z"/>
				<path fill="#73AA42" d="M-7.29,188.031h-23.161v-26.893h6.164v19.848H-7.29V188.031z M-29.451,187.031H-8.29v-5.045h-16.998
					v-19.848h-4.164V187.031z"/>
			</g>
			<g>
				<path fill="#A4CE3B" d="M21.471,169.648c0,2.183-0.56,4.029-1.678,5.541c-1.205,1.611-2.726,2.418-4.562,2.418h-4.69v9.924
					H5.377v-9.924H0.6c-1.836,0-3.342-0.807-4.519-2.418c-1.147-1.512-1.721-3.358-1.721-5.541v-8.01h5.164v8.01
					c0,1.276,0.358,1.914,1.076,1.914h14.63c0.717,0,1.076-0.638,1.076-1.914v-8.01h5.164V169.648z"/>
				<path fill="#73AA42" d="M11.04,188.031H4.877v-9.924H0.6c-1.996,0-3.652-0.883-4.922-2.623
					c-1.204-1.586-1.817-3.552-1.817-5.836v-8.51h6.164v8.51c0,0.938,0.194,1.414,0.576,1.414h14.63
					c0.382,0,0.576-0.476,0.576-1.414v-8.51h6.164v8.51c0,2.281-0.598,4.246-1.776,5.839c-1.301,1.739-2.97,2.62-4.963,2.62h-4.19
					V188.031z M5.877,187.031h4.164v-9.924h5.19c1.684,0,3.045-0.726,4.161-2.218c1.047-1.414,1.579-3.179,1.579-5.241v-7.51h-4.164
					v7.51c0,1.995-0.857,2.414-1.576,2.414H0.6c-0.719,0-1.576-0.419-1.576-2.414v-7.51h-4.164v7.51c0,2.061,0.545,3.823,1.62,5.238
					c1.092,1.497,2.438,2.221,4.12,2.221h5.276V187.031z"/>
			</g>
			<g>
				<path fill="#A4CE3B" d="M47.245,167.683h-18.46v3.879h17.298v6.045H28.786v9.924h-5.164v-25.893h23.624V167.683z"/>
				<path fill="#73AA42" d="M29.286,188.031h-6.164v-26.893h24.624v7.045h-18.46v2.879h17.298v7.045H29.286V188.031z
					 M24.122,187.031h4.164v-9.924h17.298v-5.045H28.286v-4.879h18.46v-5.045H24.122V187.031z"/>
			</g>
			<g>
				<path fill="#A4CE3B" d="M73.237,167.683h-9.983v19.848h-5.164v-19.848h-9.983v-6.045h25.131V167.683z"/>
				<path fill="#73AA42" d="M63.753,188.031h-6.164v-19.848h-9.983v-7.045h26.131v7.045h-9.983V188.031z M58.589,187.031h4.164
					v-19.848h9.983v-5.045H48.606v5.045h9.983V187.031z"/>
			</g>
			<g>
				<path fill="#A4CE3B" d="M99.012,167.683h-18.46v3.879h17.255v6.045H80.552v3.879h18.417v6.045H75.388v-25.893h23.624V167.683z"
					/>
				<path fill="#73AA42" d="M99.469,188.031H74.888v-26.893h24.624v7.045h-18.46v2.879h17.255v7.045H81.052v2.879h18.417V188.031z
					 M75.888,187.031h22.581v-5.045H80.052v-4.879h17.255v-5.045H80.052v-4.879h18.46v-5.045H75.888V187.031z"/>
			</g>
			<g>
				<path fill="#A4CE3B" d="M127.155,187.531h-7.058l-11.059-14.508h13.297c0.946,0,1.42-0.89,1.42-2.67s-0.474-2.67-1.42-2.67
					h-16.008v19.848h-5.164v-25.893h21.473c1.979,0,3.543,0.906,4.69,2.72c1.061,1.646,1.592,3.645,1.592,5.995
					s-0.531,4.35-1.592,5.994c-1.147,1.813-2.711,2.721-4.69,2.721h-1.979L127.155,187.531z"/>
				<path fill="#73AA42" d="M128.169,188.031h-8.319l-11.821-15.508h14.307c0.61,0,0.92-0.73,0.92-2.17s-0.31-2.17-0.92-2.17
					h-15.508v19.848h-6.164v-26.893h21.973c2.153,0,3.874,0.993,5.113,2.952c1.107,1.719,1.669,3.827,1.669,6.263
					c0,2.438-0.563,4.545-1.671,6.265c-1.238,1.957-2.958,2.95-5.111,2.95h-0.965L128.169,188.031z M120.345,187.031h5.796
					l-6.498-8.463h2.994c1.813,0,3.208-0.813,4.268-2.488c1.005-1.56,1.514-3.484,1.514-5.727c0-2.24-0.509-4.167-1.512-5.725
					c-1.061-1.677-2.457-2.49-4.27-2.49h-20.973v24.893h4.164v-19.848h16.508c0.876,0,1.92,0.55,1.92,3.17s-1.044,3.17-1.92,3.17
					h-12.287L120.345,187.031z"/>
			</g>
			<g>
				<path fill="#A4CE3B" d="M176.854,179.335c0,2.347-0.695,4.299-2.087,5.857s-3.092,2.338-5.1,2.338h-17.083v-16.321h5.164v10.276
					h11.956c1.323,0,1.985-0.72,1.985-2.158v-9.486c0-1.438-0.661-2.158-1.983-2.158h-17.122v-6.045h17.083
					c2.008,0,3.708,0.779,5.1,2.338c1.392,1.558,2.087,3.511,2.087,5.857V179.335z"/>
				<path fill="#73AA42" d="M169.668,188.031h-17.583v-17.321h6.164v10.276h11.456c1.041,0,1.485-0.496,1.485-1.658v-9.486
					c0-1.162-0.443-1.658-1.483-1.658h-17.622v-7.045h17.583c2.147,0,3.988,0.843,5.473,2.505c1.469,1.645,2.214,3.728,2.214,6.19
					v9.502c0,2.462-0.745,4.545-2.214,6.19C173.656,187.188,171.815,188.031,169.668,188.031z M153.085,187.031h16.583
					c1.876,0,3.422-0.71,4.727-2.171c1.301-1.457,1.96-3.315,1.96-5.524v-9.502c0-2.21-0.659-4.068-1.96-5.524
					c-1.305-1.461-2.851-2.171-4.727-2.171h-16.583v5.045h16.622c1.602,0,2.483,0.944,2.483,2.658v9.486
					c0,1.714-0.883,2.658-2.485,2.658h-12.456v-10.276h-4.164V187.031z"/>
			</g>
			<g>
				<path fill="#A4CE3B" d="M184.171,187.531h-5.164v-25.893h5.164V187.531z"/>
				<path fill="#73AA42" d="M184.671,188.031h-6.164v-26.893h6.164V188.031z M179.507,187.031h4.164v-24.893h-4.164V187.031z"/>
			</g>
			<g>
				<path fill="#A4CE3B" d="M209.945,187.531h-5.163l-13.297-17.43v17.43h-5.164v-25.893h5.164l13.297,17.329v-17.329h5.163V187.531
					z"/>
				<path fill="#73AA42" d="M210.445,188.031h-5.91l-12.55-16.45v16.45h-6.164v-26.893h5.91l12.551,16.356v-16.356h6.163V188.031z
					 M205.029,187.031h4.416v-24.893h-4.163v18.302l-14.043-18.302h-4.418v24.893h4.164v-18.409L205.029,187.031z"/>
			</g>
			<g>
				<path fill="#A4CE3B" d="M259.389,161.638l-11.273,25.893h-4.39l-11.317-25.893h5.767l7.788,17.731l7.66-17.731H259.389z"/>
				<path fill="#73AA42" d="M248.443,188.031h-5.045l-11.755-26.893h6.857l7.458,16.979l7.335-16.979h6.857L248.443,188.031z
					 M244.053,187.031h3.735l10.838-24.893h-4.674l-7.985,18.483l-8.118-18.483h-4.676L244.053,187.031z"/>
			</g>
			<g>
				<path fill="#A4CE3B" d="M288.09,187.531h-5.163v-8.211h-13.598v-6.045h13.598v-3.627c0-1.311-0.373-1.965-1.119-1.965h-14.631
					c-0.717,0-1.075,0.653-1.075,1.96v17.888h-5.164v-17.899c0-2.179,0.581-4.055,1.743-5.631c1.161-1.574,2.66-2.362,4.496-2.362
					h14.631c1.864,0,3.378,0.788,4.54,2.362c1.162,1.576,1.742,3.452,1.742,5.631V187.531z"/>
				<path fill="#73AA42" d="M288.59,188.031h-6.163v-8.211h-13.598v-7.045h13.598v-3.127c0-1.465-0.466-1.465-0.619-1.465h-14.631
					c-0.382,0-0.575,0.491-0.575,1.46v18.388h-6.164v-18.399c0-2.276,0.619-4.271,1.841-5.928c1.256-1.702,2.903-2.565,4.898-2.565
					h14.631c2.022,0,3.686,0.863,4.942,2.565c1.221,1.656,1.84,3.65,1.84,5.928V188.031z M283.427,187.031h4.163v-17.399
					c0-2.06-0.554-3.854-1.645-5.334c-1.072-1.453-2.426-2.159-4.138-2.159h-14.631c-1.683,0-3.022,0.706-4.094,2.159
					c-1.092,1.48-1.646,3.275-1.646,5.334v17.399h4.164v-17.388c0-2.033,0.856-2.46,1.575-2.46h14.631
					c0.738,0,1.619,0.428,1.619,2.465v4.127h-13.598v5.045h13.598V187.031z"/>
			</g>
			<g>
				<path fill="#A4CE3B" d="M316.233,187.531h-7.058l-11.059-14.508h13.297c0.946,0,1.42-0.89,1.42-2.67s-0.474-2.67-1.42-2.67
					h-16.008v19.848h-5.164v-25.893h21.473c1.979,0,3.543,0.906,4.69,2.72c1.061,1.646,1.592,3.645,1.592,5.995
					s-0.531,4.35-1.592,5.994c-1.147,1.813-2.711,2.721-4.69,2.721h-1.979L316.233,187.531z"/>
				<path fill="#73AA42" d="M317.248,188.031h-8.32l-0.149-0.197l-11.671-15.311h14.307c0.61,0,0.92-0.73,0.92-2.17
					s-0.31-2.17-0.92-2.17h-15.508v19.848h-6.164v-26.893h21.973c2.153,0,3.873,0.993,5.113,2.952
					c1.106,1.719,1.669,3.827,1.669,6.263c0,2.438-0.563,4.545-1.672,6.265c-1.237,1.957-2.958,2.95-5.11,2.95h-0.965
					L317.248,188.031z M309.424,187.031h5.795l-6.498-8.463h2.994c1.813,0,3.209-0.813,4.268-2.488
					c1.006-1.56,1.515-3.484,1.515-5.727c0-2.24-0.509-4.167-1.512-5.725c-1.062-1.677-2.458-2.49-4.271-2.49h-20.973v24.893h4.164
					v-19.848h16.508c0.876,0,1.92,0.55,1.92,3.17s-1.044,3.17-1.92,3.17h-12.287L309.424,187.031z"/>
			</g>
			<g>
				<path fill="#A4CE3B" d="M344.418,179.335c0,2.347-0.695,4.299-2.087,5.857s-3.092,2.338-5.1,2.338h-17.083v-16.321h5.164v10.276
					h11.956c1.323,0,1.985-0.72,1.985-2.158v-9.486c0-1.438-0.661-2.158-1.983-2.158h-17.122v-6.045h17.083
					c2.008,0,3.708,0.779,5.1,2.338c1.392,1.558,2.087,3.511,2.087,5.857V179.335z"/>
				<path fill="#73AA42" d="M337.231,188.031h-17.583v-17.321h6.164v10.276h11.456c1.041,0,1.485-0.496,1.485-1.658v-9.486
					c0-1.162-0.443-1.658-1.483-1.658h-17.622v-7.045h17.583c2.147,0,3.988,0.843,5.473,2.505c1.469,1.645,2.214,3.728,2.214,6.19
					v9.502c0,2.462-0.745,4.545-2.214,6.19C341.22,187.188,339.379,188.031,337.231,188.031z M320.648,187.031h16.583
					c1.876,0,3.422-0.71,4.727-2.171c1.301-1.457,1.96-3.315,1.96-5.524v-9.502c0-2.21-0.659-4.068-1.96-5.524
					c-1.305-1.461-2.851-2.171-4.727-2.171h-16.583v5.045h16.622c1.602,0,2.483,0.944,2.483,2.658v9.486
					c0,1.714-0.883,2.658-2.485,2.658h-12.456v-10.276h-4.164V187.031z"/>
			</g>
			<g>
				<path fill="#A4CE3B" d="M373.722,187.531h-5.163v-8.211h-13.598v-6.045h13.598v-3.627c0-1.311-0.373-1.965-1.119-1.965h-14.631
					c-0.717,0-1.075,0.653-1.075,1.96v17.888h-5.164v-17.899c0-2.179,0.581-4.055,1.743-5.631c1.161-1.574,2.66-2.362,4.496-2.362
					h14.631c1.864,0,3.378,0.788,4.54,2.362c1.162,1.576,1.742,3.452,1.742,5.631V187.531z"/>
				<path fill="#73AA42" d="M374.222,188.031h-6.163v-8.211h-13.598v-7.045h13.598v-3.127c0-1.465-0.466-1.465-0.619-1.465h-14.631
					c-0.382,0-0.575,0.491-0.575,1.46v18.388h-6.164v-18.399c0-2.276,0.619-4.271,1.841-5.928c1.256-1.702,2.903-2.565,4.898-2.565
					h14.631c2.022,0,3.686,0.863,4.942,2.565c1.221,1.656,1.84,3.65,1.84,5.928V188.031z M369.058,187.031h4.163v-17.399
					c0-2.06-0.554-3.854-1.645-5.334c-1.072-1.453-2.426-2.159-4.138-2.159h-14.631c-1.683,0-3.022,0.706-4.094,2.159
					c-1.092,1.48-1.646,3.275-1.646,5.334v17.399h4.164v-17.388c0-2.033,0.856-2.46,1.575-2.46h14.631
					c0.738,0,1.619,0.428,1.619,2.465v4.127h-13.598v5.045h13.598V187.031z"/>
			</g>
			<g>
				<path fill="#A4CE3B" d="M400.229,187.531h-17.126c-2.009,0-3.716-0.779-5.121-2.338s-2.108-3.511-2.108-5.857v-9.502
					c0-2.347,0.703-4.3,2.108-5.857c1.405-1.559,3.112-2.338,5.121-2.338h17.126v6.045h-17.126c-1.377,0-2.065,0.72-2.065,2.158
					v9.486c0,1.438,0.688,2.158,2.065,2.158h11.963v-3.879h-7.015v-6.045h12.178V187.531z"/>
				<path fill="#73AA42" d="M400.729,188.031h-17.626c-2.147,0-3.995-0.842-5.492-2.503c-1.484-1.646-2.237-3.729-2.237-6.192
					v-9.502c0-2.464,0.753-4.547,2.237-6.192c1.497-1.661,3.345-2.503,5.492-2.503h17.626v7.045h-17.626
					c-1.098,0-1.565,0.496-1.565,1.658v9.486c0,1.162,0.468,1.658,1.565,1.658h11.463v-2.879h-7.015v-7.045h13.178V188.031z
					 M383.103,162.138c-1.878,0-3.432,0.711-4.75,2.173c-1.313,1.456-1.979,3.314-1.979,5.522v9.502
					c0,2.208,0.666,4.065,1.979,5.522c1.318,1.462,2.872,2.173,4.75,2.173h16.626v-14.969h-11.178v5.045h7.015v4.879h-12.463
					c-1.654,0-2.565-0.944-2.565-2.658v-9.486c0-1.714,0.911-2.658,2.565-2.658h16.626v-5.045H383.103z"/>
			</g>
		</g>
	</g>
	<g display="inline">
		<g>
			<g>
				<path fill="#73AA42" d="M252.668,185.377c0.567,0,0.566,0.771-0.002,1.713l-3.508,5.825c-0.567,0.942-1.385,1.713-1.816,1.713
					c-0.431,0-1.019-0.869-1.306-1.931l-1.457-5.391c-0.287-1.062-0.058-1.931,0.508-1.931s1.267,0.868,1.556,1.93l0.675,2.477
					c0.289,1.061,0.988,1.158,1.553,0.214l1.739-2.904C251.175,186.149,252.101,185.377,252.668,185.377z"/>
			</g>
			<g>
				<path fill="#73AA42" d="M255.851,192.656c-0.181,1.085-0.744,1.973-1.252,1.973s-0.775-0.888-0.594-1.973l0.885-5.306
					c0.181-1.085,0.744-1.973,1.252-1.973c0.507,0,0.775,0.888,0.594,1.973L255.851,192.656z"/>
			</g>
			<g>
				<path fill="#73AA42" d="M270.078,193.549c-0.099,0.594-1.08,1.08-2.18,1.08h-3.919c-1.1,0-1.852-0.888-1.671-1.973l0.885-5.306
					c0.181-1.085,0.744-1.973,1.252-1.973c0.507,0,0.775,0.888,0.594,1.973l-0.525,3.146c-0.181,1.085,0.571,1.973,1.671,1.973
					h2.074C269.358,192.469,270.177,192.955,270.078,193.549z"/>
			</g>
			<g>
				<path fill="#73AA42" d="M280.658,186.808c-0.131,0.787-0.437,2.079-0.679,2.871c0,0,0,0-0.49,0.54
					c-0.526,0.576-1.118,0.864-1.774,0.864l0,0c-0.922,0-1.809,0.798-1.971,1.773c-0.163,0.975-0.711,1.773-1.218,1.773
					c-0.507,0-0.79-0.798-0.627-1.773c0.163-0.975-0.088-1.773-0.558-1.773s-1.369-0.13-2-0.288c0,0,0,0-0.324-0.576
					c-0.32-0.54-0.415-1.2-0.285-1.98l0.148-0.889c0.181-1.085,0.744-1.973,1.252-1.973c0.507,0,0.815,0.644,0.684,1.431
					c-0.131,0.787-0.232,1.739-0.224,2.115c0,0,0,0,0.256,0h3.228c1.1,0,2.19-0.102,2.423-0.228c0,0,0,0,0.076-0.457l0.148-0.889
					c0.181-1.085,0.744-1.973,1.251-1.973C280.481,185.377,280.789,186.021,280.658,186.808z"/>
			</g>
			<g>
				<path fill="#73AA42" d="M291.927,186.457c-0.099,0.594-1.08,1.08-2.18,1.08h-2.597c-1.1,0-2.052,0.312-2.116,0.693
					c-0.064,0.381,0.784,0.693,1.884,0.693h2.181c1.1,0,1.919,0.486,1.82,1.08c-0.099,0.594-1.08,1.08-2.18,1.08h-2.181
					c-1.1,0-2.133,0.798-2.296,1.773c-0.163,0.975-0.711,1.773-1.218,1.773c-0.507,0-0.775-0.888-0.594-1.973l0.885-5.306
					c0.181-1.085,1.229-1.973,2.329-1.973h4.442C291.207,185.377,292.026,185.863,291.927,186.457z"/>
			</g>
			<g>
				<path fill="#73AA42" d="M303.214,186.457c-0.099,0.594-0.983,1.08-1.964,1.08c-0.981,0-1.932,0.888-2.113,1.973l-0.525,3.146
					c-0.181,1.085-0.744,1.973-1.252,1.973c-0.507,0-0.775-0.888-0.594-1.973l0.525-3.146c0.181-1.085-0.473-1.973-1.454-1.973
					s-1.702-0.486-1.603-1.08s1.08-1.08,2.18-1.08h4.979C302.494,185.377,303.313,185.863,303.214,186.457z"/>
			</g>
			<g>
				<path fill="#73AA42" d="M314.424,186.457c-0.099,0.594-1.08,1.08-2.18,1.08h-2.597c-1.1,0-2.052,0.312-2.116,0.693
					c-0.064,0.381,0.784,0.693,1.884,0.693h2.166c1.1,0,1.919,0.486,1.82,1.08c-0.099,0.594-1.08,1.08-2.18,1.08h-2.166
					c-1.1,0-2.052,0.312-2.116,0.693c-0.064,0.381,0.784,0.693,1.884,0.693h2.581c1.1,0,1.919,0.486,1.82,1.08s-1.08,1.08-2.18,1.08
					h-4.426c-1.1,0-1.852-0.888-1.671-1.973l0.885-5.306c0.181-1.085,1.229-1.973,2.329-1.973h4.442
					C313.704,185.377,314.523,185.863,314.424,186.457z"/>
			</g>
			<g>
				<path fill="#73AA42" d="M323.209,193.117c0.5,0.832,0.341,1.512-0.352,1.512s-1.721-0.773-2.284-1.718l-1.04-1.747
					c-0.563-0.945-0.123-1.718,0.977-1.718h0.751c1.1,0,2.252-0.143,2.56-0.318c0,0,0,0,0.106-0.636
					c0.106-0.636-0.01-0.954-0.348-0.954h-3.72c-1.1,0-2.148,0.888-2.329,1.973l-0.525,3.146c-0.181,1.085-0.744,1.973-1.252,1.973
					c-0.507,0-0.775-0.888-0.594-1.973l0.885-5.306c0.181-1.085,1.229-1.973,2.329-1.973h3.673c1.1,0,2.545,0.146,3.212,0.324
					c0,0,0,0,0.302,0.648c0.281,0.588,0.352,1.302,0.212,2.142s-0.449,1.554-0.926,2.142c-0.518,0.648-1.131,0.972-1.838,0.972l0,0
					C322.618,191.605,322.709,192.285,323.209,193.117z"/>
			</g>
			<g>
				<path fill="#73AA42" d="M339.694,189.728c-0.181,1.085-0.556,2.664-0.834,3.509c0,0,0,0-0.59,0.557
					c-0.59,0.557-1.244,0.835-1.962,0.835h-4.104c-1.1,0-1.852-0.888-1.671-1.973l0.315-1.887c0.181-1.085,0.744-1.973,1.252-1.973
					c0.507,0,0.785,0.826,0.616,1.836s0.594,1.836,1.694,1.836h0.272c1.1,0,2.339-0.116,2.752-0.257c0,0,0,0,0.086-0.514
					l0.236-1.417c0.181-1.085,0.281-2.32,0.221-2.744c0,0,0,0-0.473,0h-4.118c-1.1,0-1.919-0.486-1.82-1.08s1.08-1.08,2.18-1.08
					h2.104c1.1,0,2.575,0.125,3.278,0.278c0,0,0,0,0.405,0.557c0.404,0.557,0.536,1.254,0.397,2.093L339.694,189.728z"/>
			</g>
			<g>
				<path fill="#73AA42" d="M342.819,192.656c-0.181,1.085-0.744,1.973-1.252,1.973c-0.507,0-0.775-0.888-0.594-1.973l0.885-5.306
					c0.181-1.085,0.744-1.973,1.252-1.973c0.507,0,0.775,0.888,0.594,1.973L342.819,192.656z"/>
			</g>
			<g>
				<path fill="#73AA42" d="M353.03,192.656c-0.181,1.085-0.744,1.973-1.252,1.973c-0.507,0-1.383-0.773-1.947-1.718l-1.664-2.792
					c-0.563-0.945-1.172-0.83-1.353,0.255l-0.381,2.283c-0.181,1.085-0.744,1.973-1.252,1.973c-0.507,0-0.775-0.888-0.594-1.973
					l0.885-5.306c0.181-1.085,0.744-1.973,1.252-1.973c0.507,0,1.386,0.772,1.952,1.715l1.659,2.763
					c0.566,0.943,1.178,0.827,1.359-0.258l0.375-2.246c0.181-1.085,0.744-1.973,1.252-1.973c0.507,0,0.775,0.888,0.594,1.973
					L353.03,192.656z"/>
			</g>
			<g>
				<path fill="#73AA42" d="M366.881,185.377c0.567,0,0.566,0.771-0.001,1.713l-3.508,5.825c-0.567,0.942-1.385,1.713-1.816,1.713
					c-0.431,0-1.019-0.869-1.306-1.931l-1.457-5.391c-0.287-1.062-0.058-1.931,0.508-1.931c0.567,0,1.267,0.868,1.556,1.93
					l0.675,2.477c0.289,1.061,0.988,1.157,1.553,0.214l1.739-2.904C365.388,186.149,366.314,185.377,366.881,185.377z"/>
			</g>
			<g>
				<path fill="#73AA42" d="M376.953,192.656c-0.181,1.085-0.744,1.973-1.251,1.973c-0.507,0-0.812-0.66-0.678-1.467
					s-0.655-1.467-1.755-1.467h-0.859c-1.1,0-1.919-0.486-1.82-1.08c0.099-0.594,1.08-1.08,2.18-1.08h0.859
					c1.1,0,2.049-0.292,2.108-0.648c0.059-0.357,0.101-0.964,0.091-1.35c0,0,0,0-0.267,0h-3.228c-1.1,0-2.191,0.105-2.424,0.233
					c0,0,0,0-0.078,0.467l-0.737,4.419c-0.181,1.085-0.744,1.973-1.251,1.973c-0.507,0-0.774-0.888-0.593-1.973l0.409-2.45
					c0.181-1.085,0.531-2.625,0.778-3.422c0,0,0,0,0.509-0.563c0.51-0.563,1.092-0.844,1.748-0.844h3.228
					c1.1,0,2.522,0.127,3.16,0.282c0,0,0,0,0.321,0.563c0.321,0.563,0.417,1.234,0.287,2.012L376.953,192.656z"/>
			</g>
			<g>
				<path fill="#73AA42" d="M386.77,193.117c0.5,0.832,0.342,1.512-0.352,1.512c-0.693,0-1.721-0.773-2.284-1.718l-1.041-1.747
					c-0.563-0.945-0.123-1.718,0.977-1.718h0.751c1.1,0,2.252-0.143,2.561-0.318c0,0,0,0,0.106-0.636
					c0.106-0.636-0.01-0.954-0.349-0.954h-3.72c-1.1,0-2.148,0.888-2.329,1.973l-0.525,3.146c-0.181,1.085-0.744,1.973-1.251,1.973
					c-0.507,0-0.774-0.888-0.593-1.973l0.885-5.306c0.181-1.085,1.229-1.973,2.329-1.973h3.673c1.1,0,2.545,0.146,3.212,0.324
					c0,0,0,0,0.302,0.648c0.281,0.588,0.351,1.302,0.211,2.142s-0.449,1.554-0.926,2.142c-0.518,0.648-1.131,0.972-1.838,0.972l0,0
					C386.18,191.605,386.27,192.285,386.77,193.117z"/>
			</g>
			<g>
				<path fill="#73AA42" d="M399.568,189.728c-0.181,1.085-0.556,2.664-0.834,3.509c0,0,0,0-0.59,0.557
					c-0.59,0.557-1.244,0.835-1.961,0.835h-4.104c-1.1,0-1.852-0.888-1.671-1.973l0.315-1.887c0.181-1.085,0.744-1.973,1.251-1.973
					s0.785,0.826,0.616,1.836s0.594,1.836,1.694,1.836h0.272c1.1,0,2.339-0.116,2.753-0.257c0,0,0,0,0.086-0.514l0.236-1.417
					c0.181-1.085,0.281-2.32,0.221-2.744c0,0,0,0-0.473,0h-4.118c-1.1,0-1.919-0.486-1.82-1.08s1.08-1.08,2.18-1.08h2.104
					c1.1,0,2.575,0.125,3.278,0.278c0,0,0,0,0.404,0.557c0.404,0.557,0.537,1.254,0.397,2.093L399.568,189.728z"/>
			</g>
			<g>
				<path fill="#73AA42" d="M410.551,192.656c-0.181,1.085-0.744,1.973-1.251,1.973c-0.507,0-0.812-0.66-0.678-1.467
					s-0.655-1.467-1.755-1.467h-0.859c-1.1,0-1.919-0.486-1.82-1.08c0.099-0.594,1.08-1.08,2.18-1.08h0.859
					c1.1,0,2.049-0.292,2.108-0.648c0.059-0.357,0.101-0.964,0.091-1.35c0,0,0,0-0.267,0h-3.228c-1.1,0-2.191,0.105-2.424,0.233
					c0,0,0,0-0.078,0.467l-0.737,4.419c-0.181,1.085-0.744,1.973-1.251,1.973c-0.507,0-0.774-0.888-0.593-1.973l0.409-2.45
					c0.181-1.085,0.531-2.625,0.778-3.422c0,0,0,0,0.509-0.563c0.51-0.563,1.092-0.844,1.748-0.844h3.228
					c1.1,0,2.522,0.127,3.16,0.282c0,0,0,0,0.321,0.563c0.321,0.563,0.417,1.234,0.287,2.012L410.551,192.656z"/>
			</g>
			<g>
				<path fill="#73AA42" d="M421.023,192.656c-0.181,1.085-1.229,1.973-2.329,1.973h-2.12c-1.1,0-2.577-0.125-3.282-0.278
					c0,0,0,0-0.409-0.557c-0.409-0.557-0.544-1.254-0.404-2.093l0.237-1.423c0.181-1.085,0.557-2.664,0.836-3.509
					c0,0,0,0,0.595-0.557c0.595-0.557,1.252-0.835,1.969-0.835h4.12c1.1,0,1.919,0.486,1.82,1.08s-1.08,1.08-2.18,1.08h-2.12
					c-1.1,0-2.352,0.116-2.781,0.257c0,0,0,0-0.086,0.514l-0.236,1.417c-0.181,1.085-0.276,2.32-0.212,2.744c0,0,0,0,0.492,0h2.274
					c1.1,0,2.052-0.312,2.116-0.693c0.064-0.381-0.448-0.693-1.137-0.693s-1.172-0.486-1.073-1.08c0.099-0.594,1.08-1.08,2.18-1.08
					h0.352c1.1,0,1.852,0.888,1.671,1.973L421.023,192.656z"/>
			</g>
		</g>
	</g>
</g>
<g id="Logo">
	
		<radialGradient id="Neutral_Background_1_" cx="148.8807" cy="147.8615" r="75.2299" gradientTransform="matrix(3.6222 0 0 2.1031 -392.4599 -147.7843)" gradientUnits="userSpaceOnUse">
		<stop  offset="0" style="stop-color:#FFFFFF"/>
		<stop  offset="0.31" style="stop-color:#FFFFFF"/>
		<stop  offset="1" style="stop-color:#F1F2F2"/>
	</radialGradient>
	
		<rect id="Neutral_Background" x="-121.605" y="60.308" display="none" fill-rule="evenodd" clip-rule="evenodd" fill="url(#Neutral_Background_1_)" stroke="#ABABAB" stroke-width="0.216" stroke-miterlimit="2.6131" width="536.842" height="205.742"/>
	<g id="Icon">
		<g id="Leaf_P">
			<path fill-rule="evenodd" clip-rule="evenodd" fill="#A6CE3C" d="M172.132,87.627h24.202c9.751,0,17.964,1.976,24.734,5.405
				c-17.204,15.429-34.369,16.492-48.937,25.026V87.627L172.132,87.627z M172.132,135.082v7.989
				c11.66-9.777,23.953-18.295,36.638-26.138C195.599,121.106,183.378,127.083,172.132,135.082L172.132,135.082z M172.132,207.292
				h7.37c62.266,0,84.827-80.179,49.237-109.269c10.874,17.214,4.109,45.422-3.879,58.639
				c-14.506,24.002-37.976,27.576-49.579,26.896l-3.15-0.001V207.292L172.132,207.292z M172.132,175.942v-0.463
				c34.164-3.739,52.656-34.215,54.774-56.847C229.592,143.569,207.615,178.294,172.132,175.942z M129.977,87.627h42.155v30.431
				c-11.349,6.647-21.121,17.83-28.107,43.876c8.554-10.718,17.932-19.612,28.107-26.851v7.989
				c-22.828,19.147-43.219,43.13-59.319,76.357v-9.777l0.332-2.36l2.923-20.764c1.605-11.432,2.259-20.51-1.928-26.538l-1.327-0.016
				v-11.828c2.437,3.522,4.614,7.447,6.941,12.151L129.977,87.627L129.977,87.627z M112.813,134.797v8.429
				c1.809,2.203,3.422,4.664,4.837,7.4C117.751,142.817,115.827,138.02,112.813,134.797L112.813,134.797z M172.132,175.479
				c-0.854,0.093-1.716,0.176-2.589,0.235c0.871,0.101,1.731,0.17,2.589,0.228V175.479L172.132,175.479z M172.132,183.557
				l-26.086-0.026c-9.808,16.593-17.661,39.639-22.851,62.755h34.217l5.485-38.994h9.235V183.557L172.132,183.557z M112.813,125.843
				c1.062,0.46,2.271,0.859,3.643,1.194c7.052-11.611,0.616-19.372-3.643-23.463V125.843z M112.813,219.428
				c-0.658,1.358-1.309,2.728-1.954,4.117l1.954-13.894V219.428L112.813,219.428z M112.813,159.973
				c-16.631-0.372-31.099-8.326-27.336-40.738c6.951,9.11,20.201,7.926,27.336,15.561v8.429
				c-4.659-5.673-10.607-9.627-17.745-12.109c8.27,5.798,13.418,10.775,17.745,17.028V159.973L112.813,159.973z M112.813,103.575
				c-0.697-0.669-1.336-1.241-1.849-1.714c-3.451,6.56-9.984,18.869,1.849,23.982V103.575z"/>
			<path fill-rule="evenodd" clip-rule="evenodd" fill="#75AA43" d="M234.146,126.186c1.443,15.201-3.612,32.156-9.286,41.545
				c-14.506,24.002-37.976,27.576-49.579,26.897c-9.746-0.008-16.958-0.018-26.702-0.028c-8.239,13.936-24.484,55.555-26.759,74.815
				c-3.014-20.226,8.514-59.305,24.225-85.884c9.745,0.01,19.489,0.02,29.235,0.027c11.603,0.68,35.073-2.894,49.579-26.896
				C229.178,149.515,233.138,137.986,234.146,126.186z"/>
			<path fill-rule="evenodd" clip-rule="evenodd" fill="#FFFFFF" d="M130.976,164.149c10.958-13.834,14.308-23.914,14.358-37.805
				C134.202,138.828,124.674,139.663,130.976,164.149z"/>
		</g>
		<path id="Leaf_Circle" fill-rule="evenodd" clip-rule="evenodd" fill="#75AA43" d="M262.843,202.393
			c35.512,5.2,52.278,1.966,51.449,39.246c-25.61-0.525-37.235-1.939-40.808-18.435c6.104,6.577,18.299,10.361,26.16,11.575
			C285.454,228.284,271.675,219.377,262.843,202.393L262.843,202.393z M206.282,257.885c21.307,27.945,35.528,37.116,7.67,62.912
			c-17.724-17.876-24.908-26.817-15.372-40.929c-0.492,8.826,5.363,19.837,10.032,26.067
			C203.332,291.645,200.105,275.93,206.282,257.885L206.282,257.885z M124.243,70.412C102.937,42.467,88.716,33.296,116.574,7.5
			c17.723,17.876,24.907,26.817,15.371,40.929c0.493-8.826-5.362-19.837-10.034-26.064
			C127.195,36.651,130.422,52.368,124.243,70.412L124.243,70.412z M118.965,265.448c-5.374,34.324-2.032,50.529-40.601,49.728
			c0.544-24.753,2.007-35.983,19.075-39.446c-6.808,5.903-10.722,17.69-11.977,25.288
			C92.181,287.304,101.399,273.986,118.965,265.448L118.965,265.448z M204.834,69.833c5.374-34.322,2.029-50.529,40.601-49.728
			c-0.543,24.753-2.006,35.983-19.075,39.446c6.804-5.903,10.721-17.69,11.977-25.288C231.617,47.977,222.402,61.295,204.834,69.833
			L204.834,69.833z M68.281,203.795c-28.91,20.594-38.4,34.342-65.089,7.415c18.494-17.133,27.745-24.074,42.345-14.859
			c-9.129-0.476-20.52,5.185-26.966,9.699C33.353,200.942,49.616,197.826,68.281,203.795L68.281,203.795z M262.244,124.503
			c28.91-20.594,38.4-34.342,65.087-7.415c-18.492,17.133-27.742,24.074-42.342,14.859c9.13,0.476,20.52-5.183,26.966-9.699
			C297.171,127.355,280.911,130.472,262.244,124.503L262.244,124.503z M67.682,125.904c-35.512-5.2-52.281-1.966-51.449-39.246
			c25.61,0.525,37.235,1.939,40.809,18.435c-6.105-6.577-18.3-10.361-26.161-11.575C45.072,100.013,58.848,108.92,67.682,125.904z"
			/>
		<g display="none">
			<g display="inline">
				<path fill="#75AA43" d="M245.351,171.633c0,2.348-0.703,4.3-2.108,5.858c-1.406,1.558-3.113,2.337-5.121,2.337h-12.995
					c-2.009,0-3.716-0.779-5.121-2.337c-1.405-1.559-2.108-3.511-2.108-5.858v-9.501c0-2.347,0.703-4.3,2.108-5.858
					c1.405-1.558,3.112-2.337,5.121-2.337h12.995c2.008,0,3.715,0.779,5.121,2.337c1.405,1.559,2.108,3.512,2.108,5.858V171.633z
					 M240.187,171.625v-9.485c0-1.439-0.688-2.158-2.065-2.158h-12.995c-1.377,0-2.065,0.719-2.065,2.158v9.485
					c0,1.439,0.688,2.158,2.065,2.158h12.995C239.499,173.784,240.187,173.065,240.187,171.625z"/>
				<path fill="#75AA43" d="M273.494,179.828h-7.058l-11.059-14.508h13.297c0.946,0,1.42-0.889,1.42-2.669s-0.474-2.67-1.42-2.67
					h-16.008v19.847h-5.164v-25.892h21.473c1.979,0,3.543,0.906,4.69,2.72c1.061,1.646,1.592,3.645,1.592,5.995
					s-0.531,4.349-1.592,5.994c-1.147,1.813-2.711,2.72-4.69,2.72h-1.979L273.494,179.828z"/>
				<path fill="#75AA43" d="M301.937,159.982h-9.983v19.847h-5.164v-19.847h-9.983v-6.045h25.131V159.982z"/>
				<path fill="#75AA43" d="M331.24,179.828h-5.163v-8.211h-13.598v-6.045h13.598v-3.627c0-1.31-0.373-1.964-1.119-1.964h-14.631
					c-0.717,0-1.075,0.653-1.075,1.96v17.887h-5.164V161.93c0-2.179,0.581-4.055,1.743-5.631c1.161-1.575,2.66-2.362,4.496-2.362
					h14.631c1.864,0,3.378,0.787,4.54,2.362c1.162,1.576,1.742,3.452,1.742,5.631V179.828z"/>
				<path fill="#75AA43" d="M355.554,179.828h-22.161v-25.892h5.164v19.847h16.997V179.828z"/>
				<path fill="#75AA43" d="M381.328,159.982h-18.46v3.879h17.255v6.045h-17.255v3.878h18.417v6.045h-23.581v-25.892h23.624V159.982
					z"/>
				<path fill="#75AA43" d="M407.104,179.828h-5.163L388.644,162.4v17.429h-5.164v-25.892h5.164l13.297,17.328v-17.328h5.163
					V179.828z"/>
			</g>
		</g>
		<g display="none">
			<g display="inline">
				<path fill="#75AA43" d="M-84.988,97.681c0,2.176-0.56,4.035-1.678,5.574c-1.205,1.607-2.726,2.41-4.562,2.41h-19.106v-6.045
					h19.106c0.717,0,1.076-0.646,1.076-1.939c0-1.292-0.359-1.939-1.076-1.939h-13.899c-1.836,0-3.356-0.806-4.562-2.418
					c-1.147-1.511-1.721-3.358-1.721-5.541c0-2.183,0.588-4.063,1.764-5.642c1.176-1.578,2.682-2.368,4.519-2.368h19.106v6.045
					h-19.147c-0.719,0-1.078,0.655-1.078,1.965c0,1.276,0.359,1.914,1.078,1.914h13.927c1.839,0,3.363,0.804,4.571,2.41
					C-85.549,93.648-84.988,95.506-84.988,97.681z"/>
				<path fill="#75AA43" d="M-55.125,88.538c0,2.317-0.545,4.299-1.635,5.944c-1.177,1.847-2.726,2.771-4.647,2.771h-16.266v8.413
					h-5.164V79.773h21.43c1.921,0,3.471,0.924,4.647,2.771C-55.671,84.223-55.125,86.222-55.125,88.538z M-60.289,88.538
					c0-1.813-0.373-2.72-1.119-2.72h-16.266v5.39h16.266C-60.662,91.208-60.289,90.319-60.289,88.538z"/>
				<path fill="#75AA43" d="M-29.351,85.818h-18.46v3.879h17.256v6.045h-17.256v3.879h18.417v6.045h-23.581V79.773h23.624V85.818z"
					/>
				<path fill="#75AA43" d="M-2.843,105.666h-17.126c-2.008,0-3.716-0.779-5.121-2.338c-1.406-1.558-2.108-3.51-2.108-5.857v-9.502
					c0-2.346,0.703-4.299,2.108-5.857c1.405-1.559,3.113-2.338,5.121-2.338h17.126v6.045h-17.126c-1.377,0-2.066,0.72-2.066,2.158
					v9.486c0,1.438,0.689,2.158,2.066,2.158h17.126V105.666z"/>
				<path fill="#75AA43" d="M4.472,105.666h-5.164V79.773h5.164V105.666z"/>
				<path fill="#75AA43" d="M33.776,105.666h-5.164v-8.211H15.015V91.41h13.598v-3.627c0-1.31-0.374-1.965-1.119-1.965h-14.63
					c-0.718,0-1.076,0.653-1.076,1.96v17.888H6.623V87.767c0-2.179,0.581-4.055,1.743-5.631c1.162-1.575,2.661-2.363,4.497-2.363
					h14.63c1.865,0,3.378,0.788,4.54,2.363c1.162,1.576,1.743,3.452,1.743,5.631V105.666z"/>
				<path fill="#75AA43" d="M58.089,105.666H35.928V79.773h5.164v19.848h16.998V105.666z"/>
				<path fill="#75AA43" d="M65.404,105.666H60.24V79.773h5.164V105.666z"/>
				<path fill="#75AA43" d="M93.976,97.681c0,2.176-0.56,4.035-1.678,5.574c-1.205,1.607-2.726,2.41-4.562,2.41H68.631v-6.045
					h19.106c0.717,0,1.076-0.646,1.076-1.939c0-1.292-0.359-1.939-1.076-1.939H73.838c-1.836,0-3.356-0.806-4.562-2.418
					c-1.147-1.511-1.721-3.358-1.721-5.541c0-2.183,0.588-4.063,1.764-5.642c1.176-1.578,2.682-2.368,4.519-2.368h19.106v6.045
					H73.797c-0.719,0-1.078,0.655-1.078,1.965c0,1.276,0.359,1.914,1.078,1.914h13.927c1.839,0,3.363,0.804,4.571,2.41
					C93.415,93.648,93.976,95.506,93.976,97.681z"/>
				<path fill="#75AA43" d="M120.655,85.818h-9.983v19.848h-5.164V85.818h-9.983v-6.045h25.13V85.818z"/>
			</g>
		</g>
	</g>
</g>
</svg>
