<?xml version="1.0" encoding="utf-8"?>
<!-- Generator: Adobe Illustrator 17.0.0, SVG Export Plug-In . SVG Version: 6.00 Build 0)  -->
<!DOCTYPE svg PUBLIC "-//W3C//DTD SVG 1.1//EN" "http://www.w3.org/Graphics/SVG/1.1/DTD/svg11.dtd">
<svg version="1.1" id="Logo" xmlns="http://www.w3.org/2000/svg" xmlns:xlink="http://www.w3.org/1999/xlink" x="0px" y="0px"
	 width="536.842px" height="205.742px" viewBox="0 0 536.842 205.742" enable-background="new 0 0 536.842 205.742"
	 xml:space="preserve">
<radialGradient id="Neutral_Background_1_" cx="270.4857" cy="87.5538" r="75.2299" gradientTransform="matrix(3.6222 0 0 2.1031 -711.3324 -81.2608)" gradientUnits="userSpaceOnUse">
	<stop  offset="0" style="stop-color:#FFFFFF"/>
	<stop  offset="0.31" style="stop-color:#FFFFFF"/>
	<stop  offset="1" style="stop-color:#F1F2F2"/>
</radialGradient>
<rect id="Neutral_Background" x="0" y="0" display="none" fill-rule="evenodd" clip-rule="evenodd" fill="url(#Neutral_Background_1_)" stroke="#ABABAB" stroke-width="0.216" stroke-miterlimit="2.6131" width="536.842" height="205.742"/>
<g id="Icon">
	<g id="Leaf_P">
		<path fill-rule="evenodd" clip-rule="evenodd" fill="#A6CE3C" d="M290.53,57.843h12.904c5.199,0,9.578,1.188,13.188,3.249
			c-9.173,9.274-18.325,9.913-26.092,15.043V57.843L290.53,57.843z M290.53,86.369v4.802c6.217-5.877,12.771-10.998,19.535-15.712
			C303.042,77.968,296.526,81.56,290.53,86.369L290.53,86.369z M290.53,129.774h3.93c33.199,0,45.229-48.196,26.253-65.683
			c5.798,10.348,2.191,27.303-2.068,35.249c-7.735,14.428-20.248,16.576-26.435,16.168l-1.679-0.001V129.774L290.53,129.774z
			 M290.53,110.93v-0.278c18.216-2.248,28.075-20.567,29.205-34.171C321.167,91.47,309.449,112.344,290.53,110.93z M268.053,57.843
			h22.476v18.292c-6.051,3.996-11.262,10.718-14.986,26.374c4.561-6.442,9.561-11.789,14.986-16.14v4.802
			c-12.171,11.509-23.044,25.926-31.628,45.899v-5.877l0.177-1.418l1.558-12.482c0.856-6.872,1.205-12.329-1.028-15.952l-0.707-0.01
			v-7.11c1.299,2.117,2.46,4.477,3.701,7.304L268.053,57.843L268.053,57.843z M258.902,86.197v5.067
			c0.965,1.324,1.825,2.804,2.579,4.448C261.534,91.018,260.509,88.135,258.902,86.197L258.902,86.197z M290.53,110.652
			c-0.455,0.056-0.915,0.106-1.38,0.141c0.464,0.061,0.923,0.102,1.38,0.137V110.652L290.53,110.652z M290.53,115.507l-13.908-0.016
			c-5.23,9.974-9.417,23.827-12.184,37.722h18.244l2.924-23.44h4.924V115.507L290.53,115.507z M258.902,80.815
			c0.566,0.276,1.211,0.516,1.943,0.718c3.76-6.979,0.328-11.645-1.943-14.104V80.815z M258.902,137.07
			c-0.351,0.816-0.698,1.64-1.042,2.475l1.042-8.352V137.07L258.902,137.07z M258.902,101.331
			c-8.868-0.224-16.582-5.005-14.575-24.488c3.706,5.476,10.771,4.765,14.575,9.354v5.067c-2.484-3.41-5.656-5.787-9.462-7.279
			c4.41,3.485,7.154,6.477,9.462,10.236V101.331L258.902,101.331z M258.902,67.429c-0.372-0.402-0.713-0.746-0.986-1.03
			c-1.84,3.943-5.323,11.342,0.986,14.416V67.429z"/>
		<path fill-rule="evenodd" clip-rule="evenodd" fill="#75AA43" d="M323.595,81.021c0.77,9.137-1.926,19.329-4.951,24.973
			c-7.735,14.428-20.248,16.576-26.435,16.168c-5.196-0.005-9.042-0.011-14.237-0.017c-4.393,8.377-13.055,33.395-14.267,44.972
			c-1.607-12.158,4.539-35.649,12.917-51.626c5.196,0.006,10.391,0.012,15.588,0.016c6.186,0.408,18.7-1.74,26.435-16.168
			C320.946,95.045,323.057,88.114,323.595,81.021z"/>
		<path fill-rule="evenodd" clip-rule="evenodd" fill="#FFFFFF" d="M268.586,103.841c5.843-8.316,7.629-14.375,7.655-22.725
			C270.306,88.62,265.225,89.122,268.586,103.841z"/>
	</g>
	<path id="Leaf_Circle" fill-rule="evenodd" clip-rule="evenodd" fill="#75AA43" d="M338.896,126.83
		c18.935,3.126,27.874,1.182,27.432,23.591c-13.655-0.315-19.853-1.166-21.758-11.081c3.255,3.954,9.757,6.228,13.948,6.958
		C350.952,142.393,343.604,137.039,338.896,126.83L338.896,126.83z M308.738,160.187c11.36,16.798,18.943,22.311,4.089,37.817
		c-9.45-10.745-13.281-16.12-8.196-24.602c-0.262,5.306,2.859,11.924,5.349,15.669C307.165,180.48,305.444,171.033,308.738,160.187
		L308.738,160.187z M264.996,47.495c-11.36-16.798-18.943-22.311-4.089-37.817c9.45,10.745,13.28,16.12,8.195,24.603
		c0.263-5.306-2.859-11.924-5.35-15.667C266.57,27.201,268.29,36.648,264.996,47.495L264.996,47.495z M262.182,164.733
		c-2.866,20.633-1.083,30.374-21.648,29.892c0.29-14.879,1.07-21.63,10.171-23.711c-3.63,3.548-5.717,10.633-6.386,15.201
		C247.901,177.87,252.816,169.865,262.182,164.733L262.182,164.733z M307.966,47.147c2.866-20.631,1.082-30.374,21.648-29.892
		c-0.289,14.879-1.069,21.63-10.17,23.711c3.628-3.548,5.716-10.633,6.386-15.201C322.246,34.009,317.333,42.015,307.966,47.147
		L307.966,47.147z M235.158,127.672c-15.414,12.379-20.475,20.643-34.705,4.457c9.861-10.299,14.793-14.471,22.578-8.932
		c-4.867-0.286-10.941,3.117-14.378,5.83C216.534,125.958,225.205,124.084,235.158,127.672L235.158,127.672z M338.576,80.009
		c15.415-12.379,20.475-20.643,34.703-4.457c-9.859,10.299-14.792,14.471-22.576,8.932c4.868,0.286,10.941-3.115,14.378-5.83
		C357.199,81.724,348.529,83.597,338.576,80.009L338.576,80.009z M234.838,80.852c-18.935-3.126-27.875-1.182-27.432-23.591
		c13.655,0.315,19.853,1.166,21.759,11.081c-3.255-3.954-9.757-6.228-13.949-6.958C222.783,65.289,230.128,70.643,234.838,80.852z"
		/>
	<g>
		<g>
			<path fill="#75AA43" d="M366.956,111.325c0,2.348-0.703,4.3-2.108,5.858c-1.406,1.558-3.113,2.337-5.121,2.337h-12.995
				c-2.009,0-3.716-0.779-5.121-2.337c-1.405-1.559-2.108-3.511-2.108-5.858v-9.501c0-2.347,0.703-4.3,2.108-5.858
				c1.405-1.558,3.112-2.337,5.121-2.337h12.995c2.008,0,3.715,0.779,5.121,2.337c1.405,1.559,2.108,3.512,2.108,5.858V111.325z
				 M361.792,111.318v-9.485c0-1.439-0.688-2.158-2.065-2.158h-12.995c-1.377,0-2.065,0.719-2.065,2.158v9.485
				c0,1.439,0.688,2.158,2.065,2.158h12.995C361.104,113.476,361.792,112.757,361.792,111.318z"/>
			<path fill="#75AA43" d="M395.099,119.521h-7.058l-11.059-14.508h13.297c0.946,0,1.42-0.889,1.42-2.669s-0.474-2.67-1.42-2.67
				h-16.008v19.847h-5.164V93.629h21.473c1.979,0,3.543,0.906,4.69,2.72c1.061,1.646,1.592,3.645,1.592,5.995
				s-0.531,4.349-1.592,5.994c-1.147,1.813-2.711,2.72-4.69,2.72h-1.979L395.099,119.521z"/>
			<path fill="#75AA43" d="M423.542,99.674h-9.983v19.847h-5.164V99.674h-9.983v-6.045h25.131V99.674z"/>
			<path fill="#75AA43" d="M452.845,119.521h-5.163v-8.211h-13.598v-6.045h13.598v-3.627c0-1.31-0.373-1.964-1.119-1.964h-14.631
				c-0.717,0-1.075,0.653-1.075,1.96v17.887h-5.164v-17.898c0-2.179,0.581-4.055,1.743-5.631c1.161-1.575,2.66-2.362,4.496-2.362
				h14.631c1.864,0,3.378,0.787,4.54,2.362c1.162,1.576,1.742,3.452,1.742,5.631V119.521z"/>
			<path fill="#75AA43" d="M477.159,119.521h-22.161V93.629h5.164v19.847h16.997V119.521z"/>
			<path fill="#75AA43" d="M502.933,99.674h-18.46v3.879h17.255v6.045h-17.255v3.878h18.417v6.045h-23.581V93.629h23.624V99.674z"/>
			<path fill="#75AA43" d="M528.709,119.521h-5.163l-13.297-17.429v17.429h-5.164V93.629h5.164l13.297,17.328V93.629h5.163V119.521z
				"/>
		</g>
	</g>
	<g>
		<g>
			<path fill="#75AA43" d="M36.617,37.374c0,2.176-0.56,4.035-1.678,5.574c-1.205,1.607-2.726,2.41-4.562,2.41H11.271v-6.045h19.106
				c0.717,0,1.076-0.646,1.076-1.939c0-1.292-0.359-1.939-1.076-1.939H16.478c-1.836,0-3.356-0.806-4.562-2.418
				c-1.147-1.511-1.721-3.358-1.721-5.541c0-2.183,0.588-4.063,1.764-5.642c1.176-1.578,2.682-2.368,4.519-2.368h19.106v6.045
				H16.437c-0.719,0-1.078,0.655-1.078,1.965c0,1.276,0.359,1.914,1.078,1.914h13.927c1.839,0,3.363,0.804,4.571,2.41
				C36.055,33.34,36.617,35.198,36.617,37.374z"/>
			<path fill="#75AA43" d="M66.48,28.231c0,2.317-0.545,4.299-1.635,5.944c-1.177,1.847-2.726,2.771-4.647,2.771H43.931v8.413
				h-5.164V19.466h21.43c1.921,0,3.471,0.924,4.647,2.771C65.934,23.916,66.48,25.914,66.48,28.231z M61.316,28.231
				c0-1.813-0.373-2.72-1.119-2.72H43.931v5.39h16.266C60.943,30.901,61.316,30.011,61.316,28.231z"/>
			<path fill="#75AA43" d="M92.254,25.51h-18.46v3.879H91.05v6.045H73.794v3.879h18.417v6.045H68.63V19.466h23.624V25.51z"/>
			<path fill="#75AA43" d="M118.762,45.358h-17.126c-2.008,0-3.716-0.779-5.121-2.338c-1.406-1.558-2.108-3.51-2.108-5.857v-9.502
				c0-2.346,0.703-4.299,2.108-5.857c1.405-1.559,3.113-2.338,5.121-2.338h17.126v6.045h-17.126c-1.377,0-2.066,0.72-2.066,2.158
				v9.486c0,1.438,0.689,2.158,2.066,2.158h17.126V45.358z"/>
			<path fill="#75AA43" d="M126.077,45.358h-5.164V19.466h5.164V45.358z"/>
			<path fill="#75AA43" d="M155.381,45.358h-5.164v-8.211h-13.598v-6.045h13.598v-3.627c0-1.31-0.374-1.965-1.119-1.965h-14.63
				c-0.718,0-1.076,0.653-1.076,1.96v17.888h-5.164V27.459c0-2.179,0.581-4.055,1.743-5.631c1.162-1.575,2.661-2.363,4.497-2.363
				h14.63c1.865,0,3.378,0.788,4.54,2.363c1.162,1.576,1.743,3.452,1.743,5.631V45.358z"/>
			<path fill="#75AA43" d="M179.694,45.358h-22.161V19.466h5.164v19.848h16.998V45.358z"/>
			<path fill="#75AA43" d="M187.009,45.358h-5.164V19.466h5.164V45.358z"/>
			<path fill="#75AA43" d="M215.581,37.374c0,2.176-0.56,4.035-1.678,5.574c-1.205,1.607-2.726,2.41-4.562,2.41h-19.106v-6.045
				h19.106c0.717,0,1.076-0.646,1.076-1.939c0-1.292-0.359-1.939-1.076-1.939h-13.899c-1.836,0-3.356-0.806-4.562-2.418
				c-1.147-1.511-1.721-3.358-1.721-5.541c0-2.183,0.588-4.063,1.764-5.642c1.176-1.578,2.682-2.368,4.519-2.368h19.106v6.045
				h-19.147c-0.719,0-1.078,0.655-1.078,1.965c0,1.276,0.359,1.914,1.078,1.914h13.927c1.839,0,3.363,0.804,4.571,2.41
				C215.02,33.34,215.581,35.198,215.581,37.374z"/>
			<path fill="#75AA43" d="M242.26,25.51h-9.983v19.848h-5.164V25.51h-9.983v-6.045h25.13V25.51z"/>
		</g>
	</g>
</g>
</svg>
