<?xml version="1.0" encoding="utf-8"?>
<!-- Generator: Adobe Illustrator 17.0.0, SVG Export Plug-In . SVG Version: 6.00 Build 0)  -->
<!DOCTYPE svg PUBLIC "-//W3C//DTD SVG 1.1//EN" "http://www.w3.org/Graphics/SVG/1.1/DTD/svg11.dtd">
<svg version="1.1" xmlns="http://www.w3.org/2000/svg" xmlns:xlink="http://www.w3.org/1999/xlink" x="0px" y="0px" width="50px"
	 height="16px" viewBox="0 0 50 16" enable-background="new 0 0 50 16" xml:space="preserve">
<g id="Lager_2" display="none">
	<rect display="inline" fill="#808080" width="50" height="16"/>
</g>
<g id="Lager_1">
	<path fill="#FFFFFF" d="M7.665,12.303c0-1.128,0-2.218,0-3.308c0-1.017-0.016-2.034,0.01-3.051C7.683,5.63,7.806,5.32,7.877,5.008
		c0.328,0.095,0.656,0.191,1.146,0.333c0.933-0.527,2.051-0.921,3.221-0.005c0.116,0.091,0.375-0.05,0.567-0.088
		c0.689-0.136,1.381-0.408,2.064-0.382c1.02,0.039,1.626,0.739,1.674,1.899c0.071,1.709,0.042,3.424,0.018,5.136
		c-0.002,0.151-0.26,0.386-0.428,0.427c-0.292,0.071-0.607,0.02-1.043,0.02c0-0.782,0-1.517,0-2.252c0-0.937,0.013-1.874-0.006-2.81
		c-0.016-0.775-0.293-1.05-0.974-1.039c-0.877,0.013-1.241,0.322-1.243,1.069c-0.004,1.445-0.036,2.892,0.013,4.335
		c0.027,0.78-0.375,0.683-0.812,0.707c-0.477,0.027-0.747-0.056-0.729-0.72c0.04-1.417,0.016-2.836,0.01-4.255
		c-0.004-0.874-0.233-1.142-0.942-1.137c-0.912,0.006-1.277,0.323-1.28,1.126c-0.004,1.628-0.001,3.256-0.001,4.929
		C8.623,12.303,8.189,12.303,7.665,12.303z"/>
	<path fill="#FFFFFF" d="M19.916,12.102c-0.304,0.079-0.634,0.272-0.9,0.192c-0.146-0.044-0.259-0.546-0.261-0.843
		c-0.021-2.379-0.012-4.758-0.012-7.137c0-1.51,0.055-1.56,1.481-1.249c0,0.689,0,1.398,0,2.186c0.435-0.142,0.78-0.279,1.136-0.365
		c1.562-0.378,2.756,0.444,3.039,2.216c0.144,0.906,0.179,1.874,0.071,2.784c-0.259,2.18-1.59,3.097-3.476,2.5
		c-0.36-0.114-0.701-0.306-1.05-0.463C19.935,11.982,19.925,12.042,19.916,12.102z M20.258,8.653c0,0.507-0.007,1.015,0.004,1.521
		c0.004,0.179,0.002,0.403,0.09,0.529c0.498,0.709,2.168,0.462,2.468-0.405c0.371-1.074,0.362-2.205-0.013-3.282
		c-0.241-0.694-0.932-0.879-1.776-0.703c-0.699,0.145-0.854,0.594-0.779,1.299C20.288,7.955,20.258,8.306,20.258,8.653z"/>
	<path fill="#FFFFFF" d="M34.873,7.566c0.04-0.963-0.155-1.282-0.965-1.281c-0.72,0.001-1.44,0.156-2.161,0.243
		c-0.268-1.219-0.185-1.444,0.871-1.565c0.786-0.091,1.6-0.087,2.381,0.04c0.769,0.124,1.228,0.753,1.337,1.644
		c0.045,0.369,0.062,0.744,0.064,1.117c0.007,1.492,0.003,2.984,0.003,4.678c-0.465-0.139-0.818-0.244-1.147-0.342
		c-0.751,0.13-1.548,0.383-2.344,0.377c-1.017-0.007-1.674-0.834-1.801-1.989c-0.132-1.192,0.353-2.173,1.356-2.48
		C33.232,7.773,34.039,7.712,34.873,7.566z M34.911,8.787c-0.616,0.099-1.131,0.147-1.631,0.27c-0.55,0.136-0.744,0.59-0.682,1.198
		c0.062,0.616,0.416,0.85,0.918,0.881c1.014,0.062,1.397-0.339,1.395-1.461C34.911,9.415,34.911,9.153,34.911,8.787z"/>
	<path fill="#FFFFFF" d="M49.966,8.774c0,0.107,0.001,0.214,0,0.321c-0.023,2.834-1.962,4.308-4.254,3.133
		c-0.517-0.265-1.02-0.921-1.226-1.528c-0.437-1.293-0.384-2.68-0.036-4.015c0.245-0.942,0.819-1.555,1.687-1.741
		C48.654,4.4,50.103,5.575,49.966,8.774z M48.496,8.618c-0.033-0.394-0.029-0.881-0.123-1.343c-0.147-0.72-0.597-1.033-1.248-1.033
		c-0.636-0.001-1.173,0.236-1.264,0.984c-0.105,0.859-0.141,1.751-0.061,2.611c0.09,0.977,0.532,1.292,1.416,1.253
		c0.75-0.034,1.098-0.415,1.206-1.351C48.462,9.396,48.469,9.049,48.496,8.618z"/>
	<path fill="#FFFFFF" d="M1.463,4.989c0,1.334,0,2.583,0,3.832c0,0.187,0,0.374,0,0.561c0.004,1.653,0.834,2.224,2.167,1.449
		c0.166-0.096,0.299-0.448,0.303-0.686c0.028-1.389,0.064-2.782-0.005-4.167C3.887,5.136,4.135,4.854,4.838,4.986
		c0.16,0.03,0.324,0.034,0.543,0.055c0,2.414,0,4.803,0,7.379c-0.408-0.117-0.761-0.219-1.17-0.336
		c-0.726,0.127-1.57,0.39-2.415,0.395c-1.11,0.007-1.758-0.773-1.788-2.021c-0.04-1.629-0.005-3.26-0.016-4.89
		c-0.003-0.39,0.088-0.613,0.476-0.584C0.767,5.006,1.069,4.989,1.463,4.989z"/>
	<path fill="#FFFFFF" d="M42.788,6.526c-1.009-0.106-2.099-0.693-2.804,0.462c-0.614,1.007-0.594,2.263-0.052,3.291
		c0.686,1.3,1.847,0.639,2.834,0.561c0.389,1.066,0.236,1.45-0.712,1.601c-0.533,0.085-1.09,0.105-1.624,0.033
		c-1.12-0.151-1.937-0.847-2.111-2.13c-0.14-1.038-0.179-2.136-0.041-3.169c0.196-1.469,1.006-2.188,2.349-2.329
		c0.465-0.049,0.946-0.007,1.41,0.073C43.016,5.087,43.132,5.357,42.788,6.526z"/>
	<path fill="#FFFFFF" d="M27.739,12.309c-0.539,0-0.957,0-1.469,0c0-0.993,0-1.948,0-2.904c0-1.151-0.014-2.302,0.009-3.452
		c0.007-0.315,0.108-0.886,0.199-0.895c0.319-0.031,0.652,0.133,1.119,0.261c0.335-0.118,0.839-0.365,1.365-0.467
		c1.11-0.215,1.273,0.016,1.057,1.34c-0.529,0.068-1.063,0.13-1.596,0.208c-0.494,0.073-0.714,0.345-0.699,0.965
		C27.766,8.993,27.739,10.622,27.739,12.309z"/>
</g>
</svg>
